<svg width="200" height="200" viewBox="0 0 200 200" fill="none" xmlns="http://www.w3.org/2000/svg">
<mask id="mask0_2504_165" style="mask-type:luminance" maskUnits="userSpaceOnUse" x="0" y="0" width="200" height="200">
<path d="M0 0H200V200H0V0Z" fill="white"/>
</mask>
<g mask="url(#mask0_2504_165)">
<mask id="mask1_2504_165" style="mask-type:luminance" maskUnits="userSpaceOnUse" x="0" y="0" width="200" height="200">
<path d="M53.1339 186.685C54.4152 187.116 55.7511 187.468 57.143 187.73C61.2016 188.502 65.2186 188.265 69.1717 187.251C69.8123 187.089 70.4386 186.896 71.0454 186.685H53.1339ZM77.5857 153.968C76.0467 153.094 74.0857 152.497 71.6821 152.302C69.4738 152.132 67.4048 152.417 65.436 153.191C63.4998 153.952 61.8982 154.991 60.7016 156.364C59.505 157.738 58.893 159.264 58.7524 160.905C58.5076 163.675 61.5909 167.318 62.9451 169.735C58.1912 168.467 55.5324 167.216 53.7407 163.426C52.4803 160.764 52.6066 157.308 53.798 154.637C54.4842 153.102 55.41 151.609 56.4178 150.178C57.6248 148.457 59.0076 146.799 60.4855 145.197C60.5337 145.149 60.5805 145.099 60.6261 145.049C59.4725 145.903 58.3396 146.774 57.2329 147.665C53.6548 150.552 50.4764 153.733 48.0167 157.224C42.5219 165.041 48.2329 176.048 58.505 176.589C64.8201 169.173 71.1795 161.63 77.5857 153.968ZM90.9035 137.935C90.4607 137.74 89.9725 137.591 89.5519 137.479C88.1951 137.111 86.6014 137.159 85.2003 137.331C82.949 137.604 80.6404 138.377 78.6508 139.184C75.6574 140.397 72.8696 142.183 70.4451 143.96C69.1717 144.931 67.9399 145.938 66.7537 146.981C68.2381 146.784 69.7524 146.749 71.2928 146.869C73.3982 147.031 75.4217 147.458 77.3058 148.175C78.5936 148.667 79.7954 149.281 80.9035 149.99C84.2225 146.005 87.5584 141.988 90.9035 137.935ZM106.196 119.286C102.53 123.786 98.88 128.247 95.2407 132.669C94.8826 132.44 94.5063 132.223 94.1157 132.018C91.8969 130.867 89.2758 130.502 86.6183 130.602C85.9126 130.63 85.2107 130.699 84.5089 130.802C91.4256 127.221 98.9881 123.411 106.196 119.286ZM86.5792 85.1632C105.95 61.2615 125.043 37.0213 143.857 12.4494H88.2511C75.9816 12.4494 66.3891 13.3809 59.4699 15.2389C52.5532 17.094 46.9399 20.7116 42.6326 26.0896C38.3253 31.4686 34.867 39.4362 32.2563 49.9953C21.5532 49.9953 14.1131 49.019 9.936 47.0634C12.285 41.0016 14.1131 33.668 15.4178 25.0636C16.7212 16.4601 17.3748 8.15013 17.3748 0.132812C38.7811 0.521975 70.6313 0.718994 112.92 0.718994C144.51 0.718994 169.57 0.521975 188.107 0.132812C190.976 2.67456 192.413 5.90002 192.413 9.81017C173.933 34.0153 155.78 57.3465 137.946 79.8028L137.519 73.8327C139.68 71.8927 141.69 69.8601 143.526 67.7231C148.536 61.8955 151.519 55.4231 152.829 48.5791C154.427 40.2653 152.466 31.3487 149.506 23.3314L145.903 13.5828L145.163 23.6805C144.69 30.1529 142.153 36.3171 137.95 41.9731C133.28 48.2621 127.577 54.0878 121.216 59.4756C114.094 65.513 106.489 71.249 98.5857 76.7138C94.5506 79.5063 90.5493 82.3221 86.5792 85.1632ZM42.6339 138.909C37.1209 146.048 33.6417 153.778 33.8995 161.808C34.0363 166.057 35.0284 170.27 37.3227 174.172C39.3279 177.583 42.1014 180.637 45.8514 183.103C47.3644 184.1 48.9738 184.989 50.6886 185.738L54.5324 181.246C41.4542 176.934 36.7889 165.415 40.7342 155.314C42.4985 150.807 45.3956 146.597 49.0232 142.774C71.1626 119.441 122.237 109.319 133.814 81.9953L137.126 74.1877C133.5 77.3907 129.459 80.3294 125.113 83.0136C117.376 87.7976 109.436 92.3974 101.357 96.8518C92.5597 101.705 83.9139 106.712 75.4021 111.835C64.8097 118.21 53.3006 126.482 45.0922 135.918L42.6339 138.909ZM179.489 149.431C188.107 150.018 194.893 151.681 199.853 154.417C195.677 167.129 193.327 182.282 192.803 199.883C167.22 199.296 133.153 199.004 90.6027 199.004C48.5714 199.004 19.4646 199.296 3.27844 199.883C1.1899 196.754 0.14563 193.623 0.14563 190.497C8.98678 179.785 17.3943 169.591 25.3657 159.908C25.6808 162.515 26.2993 165.098 27.2524 167.64C28.8592 171.941 31.2186 176.062 34.5376 179.778C37.5402 183.132 41.1613 186.123 45.4933 188.537C49.3891 190.707 53.7889 192.285 58.6222 192.812C63.3579 193.331 67.9165 192.711 72.2277 191.176C75.2316 190.105 77.8136 188.522 80.0363 186.685H110.179C127.15 186.685 139.943 185.755 148.553 183.898C157.17 182.04 163.76 178.57 168.333 173.484C172.9 168.4 176.62 160.382 179.489 149.431Z" fill="white"/>
</mask>
<g mask="url(#mask1_2504_165)">
<mask id="mask2_2504_165" style="mask-type:luminance" maskUnits="userSpaceOnUse" x="0" y="0" width="200" height="200">
<path d="M53.1339 186.685C54.4152 187.116 55.7511 187.468 57.143 187.73C61.2016 188.502 65.2186 188.265 69.1717 187.251C69.8123 187.089 70.4386 186.896 71.0454 186.685H53.1339ZM77.5857 153.968C76.0467 153.094 74.0857 152.497 71.6821 152.302C69.4738 152.132 67.4048 152.417 65.436 153.191C63.4998 153.952 61.8982 154.991 60.7016 156.364C59.505 157.738 58.893 159.264 58.7524 160.905C58.5076 163.675 61.5909 167.318 62.9451 169.735C58.1912 168.467 55.5324 167.216 53.7407 163.426C52.4803 160.764 52.6066 157.308 53.798 154.637C54.4842 153.102 55.41 151.609 56.4178 150.178C57.6248 148.457 59.0076 146.799 60.4855 145.197C60.5337 145.149 60.5805 145.099 60.6261 145.049C59.4725 145.903 58.3396 146.774 57.2329 147.665C53.6548 150.552 50.4764 153.733 48.0167 157.224C42.5219 165.041 48.2329 176.048 58.505 176.589C64.8201 169.173 71.1795 161.63 77.5857 153.968ZM90.9035 137.935C90.4607 137.74 89.9725 137.591 89.5519 137.479C88.1951 137.111 86.6014 137.159 85.2003 137.331C82.949 137.604 80.6404 138.377 78.6508 139.184C75.6574 140.397 72.8696 142.183 70.4451 143.96C69.1717 144.931 67.9399 145.938 66.7537 146.981C68.2381 146.784 69.7524 146.749 71.2928 146.869C73.3982 147.031 75.4217 147.458 77.3058 148.175C78.5936 148.667 79.7954 149.281 80.9035 149.99C84.2225 146.005 87.5584 141.988 90.9035 137.935ZM106.196 119.286C102.53 123.786 98.88 128.247 95.2407 132.669C94.8826 132.44 94.5063 132.223 94.1157 132.018C91.8969 130.867 89.2758 130.502 86.6183 130.602C85.9126 130.63 85.2107 130.699 84.5089 130.802C91.4256 127.221 98.9881 123.411 106.196 119.286ZM86.5792 85.1632C105.95 61.2615 125.043 37.0213 143.857 12.4494H88.2511C75.9816 12.4494 66.3891 13.3809 59.4699 15.2389C52.5532 17.094 46.9399 20.7116 42.6326 26.0896C38.3253 31.4686 34.867 39.4362 32.2563 49.9953C21.5532 49.9953 14.1131 49.019 9.936 47.0634C12.285 41.0016 14.1131 33.668 15.4178 25.0636C16.7212 16.4601 17.3748 8.15013 17.3748 0.132812C38.7811 0.521975 70.6313 0.718994 112.92 0.718994C144.51 0.718994 169.57 0.521975 188.107 0.132812C190.976 2.67456 192.413 5.90002 192.413 9.81017C173.933 34.0153 155.78 57.3465 137.946 79.8028L137.519 73.8327C139.68 71.8927 141.69 69.8601 143.526 67.7231C148.536 61.8955 151.519 55.4231 152.829 48.5791C154.427 40.2653 152.466 31.3487 149.506 23.3314L145.903 13.5828L145.163 23.6805C144.69 30.1529 142.153 36.3171 137.95 41.9731C133.28 48.2621 127.577 54.0878 121.216 59.4756C114.094 65.513 106.489 71.249 98.5857 76.7138C94.5506 79.5063 90.5493 82.3221 86.5792 85.1632ZM42.6339 138.909C37.1209 146.048 33.6417 153.778 33.8995 161.808C34.0363 166.057 35.0284 170.27 37.3227 174.172C39.3279 177.583 42.1014 180.637 45.8514 183.103C47.3644 184.1 48.9738 184.989 50.6886 185.738L54.5324 181.246C41.4542 176.934 36.7889 165.415 40.7342 155.314C42.4985 150.807 45.3956 146.597 49.0232 142.774C71.1626 119.441 122.237 109.319 133.814 81.9953L137.126 74.1877C133.5 77.3907 129.459 80.3294 125.113 83.0136C117.376 87.7976 109.436 92.3974 101.357 96.8518C92.5597 101.705 83.9139 106.712 75.4021 111.835C64.8097 118.21 53.3006 126.482 45.0922 135.918L42.6339 138.909ZM179.489 149.431C188.107 150.018 194.893 151.681 199.853 154.417C195.677 167.129 193.327 182.282 192.803 199.883C167.22 199.296 133.153 199.004 90.6027 199.004C48.5714 199.004 19.4646 199.296 3.27844 199.883C1.1899 196.754 0.14563 193.623 0.14563 190.497C8.98678 179.785 17.3943 169.591 25.3657 159.908C25.6808 162.515 26.2993 165.098 27.2524 167.64C28.8592 171.941 31.2186 176.062 34.5376 179.778C37.5402 183.132 41.1613 186.123 45.4933 188.537C49.3891 190.707 53.7889 192.285 58.6222 192.812C63.3579 193.331 67.9165 192.711 72.2277 191.176C75.2316 190.105 77.8136 188.522 80.0363 186.685H110.179C127.15 186.685 139.943 185.755 148.553 183.898C157.17 182.04 163.76 178.57 168.333 173.484C172.9 168.4 176.62 160.382 179.489 149.431Z" fill="white"/>
</mask>
<g mask="url(#mask2_2504_165)">
<path d="M50.0728 264.659L315.323 149.946L149.927 -64.6433L-115.324 50.0707L50.0728 264.659Z" fill="black"/>
</g>
</g>
</g>
<mask id="mask3_2504_165" style="mask-type:luminance" maskUnits="userSpaceOnUse" x="26" y="23" width="126" height="169">
<path d="M26.9999 23.7205H151.333V191.511H26.9999V23.7205Z" fill="white"/>
</mask>
<g mask="url(#mask3_2504_165)">
<mask id="mask4_2504_165" style="mask-type:luminance" maskUnits="userSpaceOnUse" x="27" y="23" width="125" height="169">
<path fill-rule="evenodd" clip-rule="evenodd" d="M82.3252 181.643C78.57 185.266 74.4242 187.655 69.8877 188.817C65.3539 189.982 60.9229 190.157 56.5987 189.339C52.2745 188.522 48.2041 186.859 44.3929 184.347C40.5778 181.838 37.5453 178.666 35.2979 174.841C33.0479 171.014 31.8448 166.684 31.6898 161.851C31.0245 141.211 53.8799 122.662 74.0153 110.545C82.9099 105.191 91.587 100.183 100.043 95.5204C108.5 90.8563 116.386 86.2595 123.709 81.7359C131.026 77.2113 137.013 72.24 141.67 66.8268C146.327 61.4088 149.316 55.2485 150.64 48.3421C151.966 41.4386 150.876 33.2457 147.373 23.7703C146.89 30.3724 144.393 36.7092 139.883 42.7817C135.376 48.8512 129.709 54.7842 122.876 60.5719C116.047 66.3577 108.446 72.1453 100.087 77.933C91.7211 83.7178 83.4112 89.6732 75.156 95.8003C66.8969 101.926 59.087 108.302 51.7263 114.927C44.3591 121.553 38.2979 128.615 33.5284 136.107C29.9554 141.725 27.9476 147.421 27.5088 153.191L27.4138 153.339C27.0804 158.18 27.7354 162.8 29.3812 167.196C31.0245 171.593 33.3578 175.481 36.3747 178.857C39.3955 182.232 42.876 185.014 46.8109 187.207C50.7458 189.398 54.7914 190.719 58.9424 191.173C63.0974 191.626 67.2094 191.128 71.2797 189.681C75.3513 188.23 79.031 185.55 82.3252 181.643Z" fill="white"/>
</mask>
<g mask="url(#mask4_2504_165)">
<path d="M58.3019 232.133L248.999 149.662L120.745 -16.7368L-69.952 65.7343L58.3019 232.133Z" fill="black"/>
</g>
</g>
<mask id="mask5_2504_165" style="mask-type:luminance" maskUnits="userSpaceOnUse" x="41" y="82" width="95" height="100">
<path d="M41.3334 82.397H136V181.273H41.3334V82.397Z" fill="white"/>
</mask>
<g mask="url(#mask5_2504_165)">
<mask id="mask6_2504_165" style="mask-type:luminance" maskUnits="userSpaceOnUse" x="41" y="82" width="95" height="100">
<path fill-rule="evenodd" clip-rule="evenodd" d="M135.921 82.4946C137.667 106.984 91.8373 123.451 69.3308 137.042C64.1615 140.165 59.5873 143.331 55.612 146.537C51.6329 149.747 48.4519 153.049 46.0613 156.449C38.0521 167.845 50.9675 183.668 67.6472 176.445C69.112 175.811 70.4232 175.066 71.5873 174.217C72.7501 173.363 73.6902 172.397 74.4115 171.308C75.1355 170.225 75.491 169.004 75.4883 167.651C76.5821 168.781 77.2344 169.853 77.4467 170.857C77.6537 171.86 77.5287 172.797 77.0639 173.655C79.4636 172 81.3061 170.028 82.5951 167.736C86.5235 160.756 83.7618 151.615 71.9154 150.655C69.2514 150.447 66.7475 150.807 64.4089 151.725C62.0691 152.647 60.2175 153.89 58.8503 155.456C57.4857 157.022 56.7162 158.805 56.5443 160.796C56.3686 162.787 57.1173 164.749 58.7839 166.684C57.4805 165.563 56.4949 164.292 55.8243 162.872C54.7396 160.575 54.8555 157.496 55.8972 155.164C56.4623 153.902 57.2865 152.5 58.3777 150.949C59.4636 149.398 60.7722 147.796 62.3061 146.14C63.8347 144.487 65.5261 142.874 67.3803 141.304C71.2813 138.05 74.8673 135.75 78.1355 134.409C81.405 133.069 84.2696 132.349 86.7318 132.258C89.1889 132.165 91.2331 132.539 92.8516 133.381C94.4714 134.225 95.5508 135.191 96.0847 136.277C96.6173 137.368 96.586 138.412 95.9975 139.411C95.405 140.412 94.1485 141.021 92.2214 141.236C93.4298 140.805 94.1329 140.225 94.3347 139.51C94.5378 138.794 94.2943 138.117 93.5977 137.481C92.905 136.844 91.8061 136.322 90.3022 135.918C88.7956 135.513 86.9792 135.438 84.8503 135.693C82.7175 135.952 80.2995 136.627 77.599 137.728C74.8959 138.824 71.9923 140.509 68.892 142.779C66.9623 144.248 65.1706 145.765 63.5248 147.319C61.879 148.879 60.4376 150.372 59.198 151.801C60.6758 150.669 62.4467 149.795 64.5066 149.179C66.5613 148.561 68.7488 148.34 71.0652 148.517C72.9597 148.664 74.7032 149.044 76.3008 149.651C82.56 152.042 86.5495 157.731 87.0899 162.816C87.336 165.149 86.9792 167.373 86.017 169.488C85.0574 171.606 83.6394 173.498 81.7631 175.176C79.8881 176.851 77.612 178.212 74.9402 179.256C72.2631 180.302 69.3725 180.914 66.2579 181.099C63.4206 181.269 60.7214 181.064 58.1563 180.487C44.1173 177.326 38.9232 165.858 42.8607 155.78C44.4753 151.643 47.1342 147.628 50.8256 143.733C73.1576 120.197 123.981 110.682 135.921 82.4946Z" fill="white"/>
</mask>
<g mask="url(#mask6_2504_165)">
<path d="M62.956 215.978L196.153 158.375L112.763 50.1846L-20.4333 107.788L62.956 215.978Z" fill="black"/>
</g>
</g>
</svg>
